# This file uses centimeters as units for non-parametric coordinates.

g default
v -13.561720 0.000000 -14.071457
v -6.063740 0.000000 -14.071457
v -13.561720 0.000000 -5.053889
v -6.063740 0.000000 -5.053889
v -6.063740 -0.000000 -7.994906
v -6.063740 0.000000 -10.980229
v -5.971458 -0.000000 -7.994906
v -5.971458 0.000000 -10.980228
vt 0.802907 0.392365
vt 0.479909 0.392365
vt 0.479909 0.003906
vt 0.802907 0.003906
vt 0.802907 0.130599
vt 0.802907 0.259201
vt 0.806882 0.130599
vt 0.806882 0.259201
vn 0.000000 1.000000 0.000000
vn 0.000000 1.000000 0.000000
vn 0.000000 1.000000 0.000000
vn 0.000000 1.000000 0.000000
vn 0.000000 1.000000 0.000000
vn 0.000000 1.000000 0.000000
vn 0.000000 1.000000 0.000000
vn 0.000000 1.000000 0.000000
vn 0.000000 1.000000 0.000000
vn 0.000000 1.000000 0.000000
s 1
g KitchenFloor1 Tiles_Group_Geo Tiles_Group SplitOut
f 5/5/1 3/3/2 4/4/3
f 6/6/4 1/2/5 3/3/2 5/5/1
f 2/1/6 1/2/5 6/6/4
s off
f 7/7/7 8/8/8 6/6/9 5/5/10
g default
v -5.538213 0.000000 5.934173
v -7.068037 0.000000 5.934173
v -5.551205 0.000000 -4.565008
v -7.072165 0.000000 -4.565008
v -5.552356 0.000000 -14.071436
v -1.563668 0.000000 -14.071478
v -1.563668 0.000000 4.365173
v -7.068037 -0.000000 2.681966
v -5.542192 0.000000 2.174280
v -1.563668 0.000000 1.364395
v -7.068634 0.000000 -0.313853
v -5.545016 0.000000 -0.245819
v -1.563668 0.000000 -0.031683
v -1.563668 -0.000000 -3.038486
v -5.538213 0.000000 8.061554
v -1.563668 -0.000000 10.481018
v -5.538213 0.000000 11.044224
v -1.563668 -0.000000 13.485802
v -5.551205 -0.000000 -7.994906
v -1.563668 -0.000000 -10.507103
v -5.551810 0.000000 -10.980228
v -1.563668 0.000000 -13.873796
v -7.193314 -0.000000 2.681966
v -7.193314 0.000000 -0.313853
v -5.890290 0.000000 11.044224
v -5.890138 0.000000 8.061554
v -1.171568 -0.000000 13.485802
v -1.171568 -0.000000 10.481018
v -1.171568 0.000000 4.365173
v -1.171568 0.000000 1.364395
v -1.323699 0.000000 -10.507103
v -1.323700 0.000000 -13.873796
v -5.040684 0.000000 -14.071453
v -2.037741 0.000000 -14.071469
v -2.037741 0.000000 -14.469268
v -5.040684 0.000000 -14.469252
v -1.219965 0.000000 -0.031683
v -1.219628 -0.000000 -3.038486
v -1.563668 -0.000000 14.086628
v -5.538213 0.000000 14.089005
v -5.538213 0.000000 6.211194
v -1.563668 0.000000 6.209431
v -5.551205 -0.000000 -4.623725
v -1.563668 -0.000000 -4.621713
v -5.971458 -0.000000 -7.994906
v -5.971458 0.000000 -10.980228
v -1.094697 0.000000 -10.025036
v 10.130179 0.000000 -10.025036
v 13.131084 0.000000 -10.026434
v 13.438280 0.000000 -10.026434
v 9.857409 0.000000 -13.873796
v 12.853600 0.000000 -13.873796
v 13.438280 0.000000 -13.873796
v -1.094697 0.000000 -13.873796
v 3.021878 0.000000 -13.873796
v 3.021880 0.000000 -10.025036
v 6.020925 0.000000 -13.873796
v 6.020927 0.000000 -10.025036
v -1.094697 0.000000 -10.507103
v 3.021878 0.000000 -14.247447
v 6.020925 -0.000000 -14.247447
v 9.857409 0.000000 -14.221583
v 12.853600 0.000000 -14.221583
v 10.130179 0.000000 -9.641411
v 13.131084 0.000000 -9.642809
v 7.818811 0.000000 -10.025036
v 7.817543 0.000000 -13.873796
v -0.061576 0.000000 -10.025036
v -0.060898 0.000000 -13.873796
vt 0.192498 0.074912
vt 0.201722 0.246420
vt 0.072195 0.246420
vt 0.006436 0.074645
vt 0.006436 0.009125
vt 0.189567 0.009277
vt 0.470653 0.075205
vt 0.470577 0.246420
vt 0.391130 0.246420
vt 0.458720 0.075205
vt 0.296751 0.075033
vt 0.318621 0.009303
vt 0.458720 0.009303
vt 0.261863 0.246420
vt 0.450953 0.353956
vt 0.442437 0.333533
vt 0.450953 0.333533
vt 0.776588 0.711310
vt 0.776587 0.581870
vt 0.947803 0.477644
vt 0.947803 0.606132
vt 0.043963 0.505309
vt 0.043876 0.333533
vt 0.297407 0.333533
vt 0.189186 0.505309
vt 0.317788 0.505335
vt 0.189567 0.003906
vt 0.318621 0.003906
vt 0.962963 0.477644
vt 0.962970 0.606132
vt 0.759697 0.711310
vt 0.759697 0.581870
vt 0.391130 0.263311
vt 0.261863 0.263311
vt 0.297407 0.323196
vt 0.442437 0.323196
vt 0.450952 0.483316
vt 0.450951 0.505358
vt 0.468089 0.353956
vt 0.468088 0.483316
vt 0.201722 0.261226
vt 0.072195 0.261241
vt 0.947803 0.737295
vt 0.776588 0.737193
vt 0.776587 0.397859
vt 0.947803 0.397934
vt 0.003993 0.246420
vt 0.003906 0.074645
vt 0.317788 0.523412
vt 0.189186 0.523412
vt 0.830297 0.265928
vt 0.996094 0.265929
vt 0.996094 0.343378
vt 0.830297 0.343323
vt 0.776792 0.925656
vt 0.647722 0.925656
vt 0.659472 0.759859
vt 0.788745 0.759919
vt 0.801979 0.759919
vt 0.801979 0.925656
vt 0.442437 0.313331
vt 0.297407 0.313331
vt 0.996094 0.136735
vt 0.830297 0.136735
vt 0.276640 0.313331
vt 0.814201 0.265928
vt 0.814201 0.136735
vt 0.776792 0.940638
vt 0.647722 0.940638
vt 0.659472 0.743333
vt 0.788745 0.743393
vt 0.559848 0.925656
vt 0.559903 0.759859
vt 0.276640 0.268826
vt 0.830297 0.003936
vt 0.996094 0.003906
vt 0.442437 0.268797
vn 0.000000 1.000000 0.000000
vn 0.000000 1.000000 0.000000
vn 0.000000 1.000000 0.000000
vn 0.000000 1.000000 0.000000
vn 0.000000 1.000000 0.000000
vn 0.000000 1.000000 0.000000
vn 0.000000 1.000000 0.000000
vn 0.000000 1.000000 0.000000
vn 0.000000 1.000000 0.000000
vn 0.000000 1.000000 0.000000
vn 0.000000 1.000000 0.000000
vn 0.000000 1.000000 0.000000
vn 0.000000 1.000000 0.000000
vn 0.000000 1.000000 0.000000
vn 0.000000 1.000000 0.000000
vn 0.000000 1.000000 0.000000
vn 0.000000 1.000000 0.000000
vn 0.000000 1.000000 0.000000
vn 0.000000 1.000000 0.000000
vn 0.000000 1.000000 0.000000
vn 0.000000 1.000000 0.000000
vn 0.000000 1.000000 -0.000000
vn 0.000000 1.000000 -0.000000
vn 0.000000 1.000000 0.000000
vn 0.000000 1.000000 0.000000
vn 0.000000 1.000000 0.000000
vn 0.000000 1.000000 0.000000
vn 0.000000 1.000000 0.000000
vn 0.000000 1.000000 0.000000
vn 0.000000 1.000000 0.000000
vn 0.000000 1.000000 0.000000
vn 0.000000 1.000000 0.000000
vn 0.000000 1.000000 0.000000
vn 0.000000 1.000000 0.000000
vn 0.000000 1.000000 0.000000
vn 0.000000 1.000000 0.000000
vn 0.000000 1.000000 0.000000
vn 0.000000 1.000000 0.000000
vn 0.000000 1.000000 0.000000
vn 0.000000 1.000000 0.000000
vn 0.000000 1.000000 0.000000
vn 0.000000 1.000000 0.000000
vn 0.000000 1.000000 -0.000000
vn 0.000000 1.000000 -0.000000
vn 0.000000 1.000000 0.000000
vn 0.000000 1.000000 0.000000
vn 0.000000 1.000000 0.000000
vn 0.000000 1.000000 0.000000
vn 0.000000 1.000000 0.000000
vn 0.000000 1.000000 0.000000
vn 0.000000 1.000000 0.000000
vn 0.000000 1.000000 0.000000
vn 0.000000 1.000000 0.000000
vn 0.000000 1.000000 0.000000
vn 0.000000 1.000000 0.000000
vn 0.000000 1.000000 0.000000
vn 0.000000 1.000000 0.000000
vn 0.000000 1.000000 0.000000
vn 0.000000 1.000000 0.000000
vn 0.000000 1.000000 0.000000
vn 0.000000 1.000000 0.000000
vn 0.000000 1.000000 0.000000
vn 0.000000 1.000000 0.000000
vn 0.000000 1.000000 0.000000
vn 0.000000 1.000000 0.000000
vn 0.000000 1.000000 0.000000
vn 0.000000 1.000000 0.000000
vn 0.000000 1.000000 0.000000
vn 0.000000 1.000000 0.000000
vn 0.000000 1.000000 0.000000
vn 0.000000 1.000000 0.000000
s 1
g Tiles_Group_Geo Tiles_Group SplitOut polySurface114
f 20/9/11 21/10/12 22/11/13 11/12/14
f 12/13/15 19/14/16 20/9/11 11/12/14
f 49/15/17 50/16/18 15/17/19 9/18/20
f 17/19/21 16/20/22 10/21/23 9/18/20
f 9/18/20 15/17/19 18/22/24 17/19/21
f 20/9/11 19/14/16 16/20/22 17/19/21
f 17/19/21 18/22/24 21/10/12 20/9/11
f 42/23/25 30/24/26 14/25/27
f 26/26/28 24/27/29 23/28/30 25/29/31
f 51/30/32 52/31/33 28/32/34 27/33/35
f 27/33/35 28/32/34 30/24/26 29/34/36
f 16/20/22 19/14/16 32/35/37 31/36/38
f 25/29/31 23/28/30 34/37/39 33/38/40
f 24/27/29 26/26/28 35/39/41 36/40/42
f 18/22/24 15/17/19 37/41/43 38/42/44
f 30/24/26 28/32/34 39/43/45 40/44/46
f 29/34/36 41/45/47 13/46/48
f 29/34/36 30/24/26 42/23/25 41/45/47
f 41/45/47 42/23/25 43/47/49 44/48/50
f 22/11/13 21/10/12 45/49/51 46/50/52
f 48/51/53 47/52/54 26/26/28 25/29/31
f 24/27/29 50/53/18 49/54/17 23/28/30
f 11/12/14 22/11/13 52/55/33 51/56/32
f 27/33/35 29/34/36 54/57/55 53/58/56
s 5
f 65/59/57 66/60/58 74/61/59 75/62/60
f 60/63/61 59/64/62 56/65/63 57/66/64
f 57/66/64 58/67/65 61/68/66 60/63/61
f 76/82/67 67/70/68 55/73/69
f 63/72/70 64/71/71 66/60/58 65/59/57
f 67/70/68 62/69/72 40/44/73 39/43/74
f 63/72/70 65/59/57 69/74/75 68/75/76
f 59/64/62 60/63/61 71/76/77 70/77/78
f 57/66/64 56/65/63 72/78/79 73/79/80
f 75/80/60 74/81/59 56/65/63 59/64/62
f 64/71/71 63/72/70 77/83/81 76/84/67
f 76/82/67 77/85/81 62/69/72 67/70/68
g default
v -5.538212 0.000000 14.935879
v -1.563668 0.000000 14.822224
v -1.563668 -0.000000 14.086628
v -5.538213 0.000000 14.089005
v -12.387273 0.000000 16.057716
v -12.387273 0.000000 23.456919
v -2.642956 0.000000 23.456919
v -13.561720 0.000000 14.935879
v -13.561720 0.000000 24.438278
v -1.563668 0.000000 24.438278
v -2.642956 0.000000 16.057716
v -5.538213 0.000000 16.057716
v -2.642956 0.000000 17.822325
v -1.563668 0.000000 17.822325
v -1.201946 0.000000 17.822325
v -1.201946 0.000000 14.822224
v -11.882284 0.000000 24.438278
v -11.882282 0.000000 23.456919
v -8.868843 0.000000 24.438278
v -8.868843 0.000000 23.456919
v -7.939399 0.000000 16.057716
v -7.939398 0.000000 14.935879
v -12.387273 0.000000 19.996525
v -13.561720 0.000000 19.996439
v -2.642956 0.000000 19.995548
v -1.563668 0.000000 19.995964
v -6.952683 0.000000 23.456919
v -6.953930 0.000000 24.438278
vt 0.287187 0.859262
vt 0.255499 0.859262
vt 0.255602 0.688046
vt 0.292083 0.688046
vt 0.402275 0.744956
vt 0.551342 0.744956
vt 0.551345 0.795549
vt 0.360000 0.795549
vt 0.432978 0.934743
vt 0.190779 0.934743
vt 0.241372 0.886417
vt 0.432978 0.886417
vt 0.360000 0.723202
vt 0.402275 0.723202
vt 0.340410 0.812768
vt 0.416426 0.812768
vt 0.416426 0.859262
vt 0.340410 0.688046
vt 0.510044 0.812768
vt 0.510062 0.859262
vt 0.416426 0.874844
vt 0.287187 0.874844
vt 0.360000 0.593389
vt 0.402275 0.593389
vt 0.177348 0.946315
vt 0.363002 0.946315
vt 0.363056 0.988590
vt 0.130854 0.988590
vt 0.292083 0.584608
vt 0.340410 0.584608
vt 0.190779 0.716744
vt 0.241372 0.716740
vt 0.130854 0.797224
vt 0.177348 0.797207
vt 0.360000 0.510898
vt 0.402275 0.510844
vn 0.000000 1.000000 0.000000
vn 0.000000 1.000000 -0.000000
vn 0.000000 1.000000 -0.000000
vn 0.000000 1.000000 0.000000
vn 0.000000 1.000000 0.000000
vn 0.000000 1.000000 0.000000
vn 0.000000 1.000000 0.000000
vn 0.000000 1.000000 0.000000
vn -0.000000 1.000000 0.000000
vn 0.000000 1.000000 0.000000
vn 0.000000 1.000000 0.000000
vn -0.000000 1.000000 0.000000
vn 0.000000 1.000000 0.000000
vn 0.000000 1.000000 0.000000
vn 0.000000 1.000000 0.000000
vn 0.000000 1.000000 0.000000
vn 0.000000 1.000000 0.000000
vn 0.000000 1.000000 0.000000
vn 0.000000 1.000000 0.000000
vn 0.000000 1.000000 0.000000
vn 0.000000 1.000000 0.000000
vn 0.000000 1.000000 0.000000
vn 0.000000 1.000000 0.000000
vn 0.000000 1.000000 0.000000
vn 0.000000 1.000000 0.000000
vn 0.000000 1.000000 0.000000
vn 0.000000 1.000000 0.000000
vn 0.000000 1.000000 0.000000
vn 0.000000 1.000000 0.000000
vn 0.000000 1.000000 0.000000
vn 0.000000 1.000000 0.000000
vn 0.000000 1.000000 0.000000
vn 0.000000 1.000000 0.000000
vn 0.000000 1.000000 0.000000
vn 0.000000 1.000000 0.000000
vn 0.000000 1.000000 0.000000
vn 0.000000 1.000000 0.000000
vn 0.000000 1.000000 0.000000
vn 0.000000 1.000000 0.000000
vn 0.000000 1.000000 0.000000
s off
g Tiles_Group_Geo Tiles_Group SplitOut polySurface115
f 79/86/82 80/87/83 81/88/84 78/89/85
s 1
f 83/90/86 100/91/87 101/92/88 86/93/89
s 2
f 99/94/90 85/95/91 82/96/92 98/97/93
s 3
f 94/98/94 95/99/95 83/90/96 86/93/97
s 4
f 88/100/98 90/101/99 91/102/100 79/86/101
s 2
f 79/86/102 78/89/103 89/103/104 88/100/105
s 4
f 91/102/100 90/101/99 102/104/106 103/105/107
s off
f 79/86/108 91/102/109 92/106/110 93/107/111
s 3
f 96/108/112 97/109/113 95/99/95 94/98/94
f 84/110/114 104/111/115 105/112/116 87/113/117
s 2
f 78/89/103 99/114/90 98/115/93 89/103/104
s 1
f 101/116/88 100/117/87 82/96/118 85/95/119
s 4
f 103/118/107 102/119/106 84/110/120 87/113/121
s 3
f 105/120/116 104/121/115 97/109/113 96/108/112
g default
v -7.193314 0.000000 2.681965
v -7.193314 0.000000 -0.313853
v -12.967142 0.000000 -1.958043
v -7.520942 0.000000 2.681964
v -7.520942 0.000000 -0.313853
v -8.040594 0.000000 -1.958043
v -8.040594 0.000000 -1.576536
v -12.967142 0.000000 -1.576536
v -13.561720 0.000000 -1.576536
v -13.561720 0.000000 5.934173
v -7.520942 0.000000 5.934173
v -7.520942 0.000000 -1.576536
v -13.561720 -0.000000 2.681964
v -13.561720 0.000000 -0.313853
vt 0.725000 0.397859
vt 0.512774 0.397859
vt 0.476275 0.597741
vt 0.476275 0.468687
vt 0.490389 0.468687
vt 0.490389 0.597741
vt 0.725000 0.414293
vt 0.512774 0.414293
vt 0.750614 0.737840
vt 0.490389 0.737840
vt 0.750614 0.597741
vt 0.490389 0.414293
vt 0.750614 0.468687
vt 0.750614 0.414293
vn 0.000000 1.000000 0.000000
vn 0.000000 1.000000 0.000000
vn 0.000000 1.000000 0.000000
vn 0.000000 1.000000 0.000000
vn 0.000000 1.000000 0.000000
vn 0.000000 1.000000 0.000000
vn 0.000000 1.000000 0.000000
vn 0.000000 1.000000 0.000000
vn 0.000000 1.000000 0.000000
vn 0.000000 1.000000 0.000000
vn 0.000000 1.000000 0.000000
vn 0.000000 1.000000 0.000000
vn 0.000000 1.000000 0.000000
vn 0.000000 1.000000 0.000000
vn 0.000000 1.000000 0.000000
vn 0.000000 1.000000 0.000000
vn 0.000000 1.000000 0.000000
vn 0.000000 1.000000 0.000000
s off
g Tiles_Group_Geo Tiles_Group SplitOut BathroomFloor
f 106/124/122 107/125/123 110/126/124 109/127/125
f 113/128/126 112/129/127 111/123/128 108/122/129
s 1
f 115/130/130 116/131/131 109/127/132 118/132/133
f 117/133/134 112/129/135 110/126/136
f 110/126/136 119/134/137 118/132/133 109/127/132
f 113/128/138 119/134/137 110/126/136 112/129/135
f 114/135/139 119/134/137 113/128/138
